<?xml version="1.0" encoding="UTF-8" standalone="no"?>
<!-- Created with Inkscape (http://www.inkscape.org/) -->

<svg
   width="500"
   height="500"
   viewBox="0 0 132.29166 132.29167"
   version="1.1"
   id="svg5"
   xml:space="preserve"
   inkscape:version="1.2.2 (732a01da63, 2022-12-09)"
   sodipodi:docname="RoxysBurgerPalette.svg"
   xmlns:inkscape="http://www.inkscape.org/namespaces/inkscape"
   xmlns:sodipodi="http://sodipodi.sourceforge.net/DTD/sodipodi-0.dtd"
   xmlns="http://www.w3.org/2000/svg"
   xmlns:svg="http://www.w3.org/2000/svg"><sodipodi:namedview
     id="namedview7"
     pagecolor="#ffffff"
     bordercolor="#000000"
     borderopacity="0.25"
     inkscape:showpageshadow="2"
     inkscape:pageopacity="0.0"
     inkscape:pagecheckerboard="false"
     inkscape:deskcolor="#d1d1d1"
     inkscape:document-units="mm"
     showgrid="false"
     inkscape:zoom="0.79832356"
     inkscape:cx="740.92765"
     inkscape:cy="326.3088"
     inkscape:window-width="2560"
     inkscape:window-height="1351"
     inkscape:window-x="2551"
     inkscape:window-y="-9"
     inkscape:window-maximized="1"
     inkscape:current-layer="layer1"
     inkscape:lockguides="false"
     showguides="false" /><defs
     id="defs2" /><g
     inkscape:label="Layer 1"
     inkscape:groupmode="layer"
     id="layer1"
     transform="translate(-142.29166)"><rect
       style="opacity:1;fill:#41666f;fill-opacity:1;stroke:none;stroke-width:0.290999;stroke-opacity:1"
       id="rect10820"
       width="132.29167"
       height="132.29167"
       x="142.29166"
       y="-1.6666667e-06"
       ry="1.1645454e-05"
       sodipodi:insensitive="true" /><path
       style="fill:#ffffff;fill-opacity:0;stroke-width:0.18185"
       d="M 142.29163,66.145836 V -1.6666667e-6 h 66.14584 66.14584 V 66.145836 132.29167 h -66.14584 -66.14584 z m 72.55286,44.628774 c 5.00451,-0.72793 7.08642,-1.27741 12.88477,-3.40068 2.50726,-0.91814 8.29594,-4.05291 8.94082,-4.84178 0.21351,-0.26118 0.0663,-0.2901 -1.47692,-0.2901 l -8.75682,-0.0841 4.17761,1.53735 c 2.72199,1.00166 -6.8555,3.10136 -8.00882,3.35653 -0.24816,0.0549 -1.0806,0.27433 -1.84987,0.4876 -3.61972,1.00355 -6.80667,1.4591 -11.23491,1.60595 -8.48406,0.28137 -11.45892,-2.2155 -19.06365,-6.45808 -1.38709,-0.77382 -7.21937,-0.44524 -9.01409,-0.44524 -1.05342,0 -1.77012,0.0704 -1.71067,0.16804 0.19925,0.32729 4.40813,2.77808 6.43535,3.74722 5.1963,2.48416 10.97053,4.14099 16.31434,4.68114 1.0919,0.11032 2.22894,0.23526 2.52672,0.27756 1.13504,0.16118 8.02498,-0.078 9.83614,-0.34139 z M 167.37831,98.943915 c 0.4269,-0.433386 0.45991,-0.894916 0.0992,-1.385008 -0.1684,-0.228732 -0.22701,-0.585435 -0.16425,-0.99946 0.15699,-1.035407 -0.2901,-1.308586 -2.03343,-1.242423 l -1.4208,0.05394 -0.0523,1.726939 c -0.0288,0.949814 -0.0107,1.836186 0.0394,1.969717 0.0662,0.175305 0.51972,0.242783 1.63152,0.242783 1.29909,0 1.59616,-0.05728 1.90069,-0.36646 z m -2.70719,-0.91615 c 0,-0.315561 0.12032,-0.366454 0.8663,-0.366454 0.79891,0 1.29946,0.225858 1.29946,0.58633 0,0.08062 -0.48729,0.146586 -1.08289,0.146586 -0.96255,0 -1.08287,-0.04073 -1.08287,-0.366462 z m 0,-1.465831 c 0,-0.317597 0.12032,-0.366461 0.9024,-0.366461 0.65102,0 0.9024,0.0711 0.9024,0.255243 0,0.319709 -0.39283,0.477672 -1.18788,0.477672 -0.4966,0 -0.61692,-0.07147 -0.61692,-0.366454 z m 9.16838,2.528574 c 0.26826,-0.272354 0.29868,-3.554807 0.0345,-3.720582 -0.10013,-0.06281 -0.34379,-0.06212 -0.54143,0.0013 -0.31903,0.102866 -0.35935,0.278953 -0.35935,1.569341 v 1.453492 h -0.61168 c -1.00784,0 -1.35688,-0.452182 -1.4143,-1.832293 -0.0472,-1.134827 -0.0708,-1.190998 -0.50074,-1.190998 -0.44098,0 -0.45067,0.02937 -0.42827,1.298352 0.0268,1.521455 0.24662,2.02845 1.02904,2.373983 0.70981,0.31347 2.50018,0.343746 2.79225,0.04722 z m 3.54069,0.108648 c 0.16929,-0.06592 0.28548,-0.326968 0.28548,-0.64131 0,-0.691835 0.2475,-0.668607 1.1849,0.111225 0.72642,0.604316 1.56404,0.834197 1.77528,0.487223 0.0516,-0.08477 -0.1518,-0.338435 -0.45197,-0.563753 l -0.54577,-0.409648 0.44223,-0.416093 c 0.60483,-0.569072 0.77872,-1.457091 0.40019,-2.043602 -0.28406,-0.440132 -0.35787,-0.455407 -1.95611,-0.40482 l -1.66092,0.05258 -0.0513,1.969716 c -0.0509,1.957917 -0.0107,2.08775 0.5779,1.858506 z m 0.28548,-2.480173 c 0,-0.511719 0.0221,-0.523512 0.98199,-0.523512 1.10005,0 1.28552,0.137445 0.91335,0.676883 -0.1925,0.279016 -0.45725,0.370146 -1.07536,0.370146 -0.78166,0 -0.81998,-0.02444 -0.81998,-0.523517 z m 9.34884,2.371523 c 0.22784,-0.231302 0.29345,-1.379101 0.10702,-1.872285 -0.0863,-0.228124 -0.39362,-0.289835 -1.44384,-0.289835 -1.21396,0 -1.33428,0.03303 -1.33428,0.366462 0,0.317597 0.12032,0.36646 0.9024,0.36646 0.78939,0 0.90239,0.04702 0.90239,0.375604 0,0.341225 -0.0943,0.370567 -1.03077,0.320651 l -1.03075,-0.05498 -0.007,-1.007763 -0.007,-1.007762 1.44385,-0.09162 c 1.29343,-0.08208 1.44384,-0.129785 1.44384,-0.458075 0,-0.332969 -0.13791,-0.371349 -1.50901,-0.420006 -2.15459,-0.07644 -2.37129,0.09627 -2.37129,1.89007 0,1.901295 0.21282,2.102915 2.21989,2.102915 0.92446,0 1.5809,-0.08418 1.71456,-0.219876 z m 6.22665,-0.02576 c 0.18053,-0.477611 -0.16851,-0.652499 -1.41096,-0.706994 -1.02738,-0.04509 -1.26747,-0.113585 -1.31672,-0.375761 -0.0527,-0.280928 0.098,-0.320653 1.21638,-0.320653 1.15627,0 1.27659,-0.03456 1.27659,-0.36646 0,-0.405041 -0.0131,-0.408283 -1.48896,-0.368504 -0.93812,0.02528 -1.03777,-0.0085 -1.03777,-0.351454 0,-0.350015 0.10489,-0.379419 1.35361,-0.379419 1.32351,0 1.3536,-0.01024 1.3536,-0.458075 0,-0.452334 -0.019,-0.458075 -1.51932,-0.458075 -2.15018,0 -2.09028,-0.04944 -2.09028,1.725264 0,2.110256 0.15656,2.267472 2.28181,2.291323 0.92181,0.01036 1.31563,-0.05555 1.38202,-0.231192 z m 3.52167,-0.441453 c 0.0311,-0.327522 0.14457,-0.595493 0.25213,-0.595493 0.10761,0 0.54248,0.288588 0.96647,0.641302 1.14358,0.951359 2.34813,0.874605 1.29313,-0.0824 -0.55215,-0.500858 -0.55501,-0.512195 -0.1804,-0.715741 0.51608,-0.280401 0.83483,-1.296649 0.60184,-1.918801 -0.224,-0.598144 -0.63164,-0.703935 -2.44888,-0.635521 l -1.44324,0.05429 -0.0523,1.726939 c -0.061,2.016241 -1.6e-4,2.258554 0.54783,2.179551 0.31213,-0.04502 0.42006,-0.197354 0.46344,-0.654155 z m 0.0341,-1.923914 c -3.6e-4,-0.488657 0.0297,-0.503878 0.99227,-0.503878 0.8664,0 0.99265,0.04577 0.99265,0.360014 0,0.47135 -0.54326,0.75225 -1.34272,0.694287 -0.56866,-0.04121 -0.64188,-0.103999 -0.6422,-0.550423 z m 9.71298,2.107147 c 0.0516,-0.368989 0.15925,-0.412271 1.02521,-0.412271 0.86595,0 0.97359,0.04329 1.0252,0.412271 0.0422,0.301982 0.17837,0.412259 0.50887,0.412259 h 0.45121 v -1.923907 -1.923913 l -1.21156,-0.05402 c -1.47969,-0.06598 -2.22562,0.267666 -2.59274,1.159688 -0.26583,0.645922 -0.35308,2.491407 -0.12857,2.719357 0.26644,0.270484 0.86543,0.01758 0.92238,-0.389467 z m 0.0325,-1.681794 c 0,-0.563019 0.50297,-0.929231 1.27626,-0.929231 0.68999,0 0.70902,0.01718 0.70902,0.641303 v 0.641302 h -0.99263 c -0.86008,0 -0.99265,-0.04722 -0.99265,-0.353374 z m 6.51993,0.903068 -0.0454,-1.190996 1.23414,1.236799 c 1.7526,1.756365 1.85677,1.711961 1.85677,-0.791468 0,-1.998587 -0.006,-2.027418 -0.40609,-1.969716 -0.36174,0.05214 -0.41593,0.187272 -0.49631,1.237888 l -0.0903,1.179335 -1.11797,-1.24054 c -1.54329,-1.71246 -1.7537,-1.641911 -1.82202,0.610894 -0.0609,2.005436 0.001,2.256829 0.53673,2.177451 0.36646,-0.05429 0.39243,-0.146939 0.35039,-1.249654 z m 9.25827,0.746061 c 0.39486,-0.376601 0.46499,-0.602009 0.46499,-1.494634 0,-0.952286 -0.053,-1.096455 -0.56383,-1.532812 -0.51696,-0.441614 -0.67827,-0.477244 -1.94016,-0.428554 l -1.37633,0.05312 -0.0523,1.726946 c -0.0288,0.949807 -0.007,1.844882 0.0467,1.989038 0.0775,0.204841 0.41116,0.247714 1.52748,0.196246 1.21135,-0.05582 1.49909,-0.133254 1.89341,-0.509335 z m -2.51293,-1.478776 v -1.099161 l 0.82119,-1.88e-4 c 0.991,-1.8e-4 1.25432,0.230492 1.25432,1.099177 0,0.868615 -0.26327,1.099369 -1.25432,1.099369 h -0.82119 v -1.099168 z m 9.83614,1.09917 0.0903,-0.824537 0.50393,0.87034 c 0.6438,1.111925 1.02722,1.125354 1.58621,0.05562 0.23417,-0.448117 0.46298,-0.776953 0.50851,-0.730741 0.0456,0.0462 0.0885,0.392236 0.0956,0.768948 0.0119,0.604958 0.0655,0.684943 0.46409,0.684943 h 0.45121 v -1.923905 c 0,-1.834959 -0.0182,-1.926538 -0.39188,-1.980582 -0.31734,-0.04584 -0.53387,0.190167 -1.13842,1.24108 -0.4106,0.713761 -0.80276,1.26232 -0.87148,1.219045 -0.0687,-0.04327 -0.40143,-0.626448 -0.73937,-1.295921 -0.49452,-0.979675 -0.68823,-1.206524 -0.99264,-1.162383 -0.35361,0.05123 -0.38155,0.183837 -0.42957,2.038138 -0.0511,1.973531 -0.0493,1.982998 0.36095,1.923906 0.34307,-0.04937 0.42749,-0.197874 0.50257,-0.883913 z m 9.85803,0.566037 c 0.63021,-0.39013 0.89995,-1.279735 0.69022,-2.276274 -0.22563,-1.072029 -0.82381,-1.438247 -2.33641,-1.43038 -0.7765,0.004 -0.97165,0.08325 -1.39872,0.567784 -0.40301,0.457216 -0.49632,0.737445 -0.49632,1.490443 0,0.780659 0.0834,1.012072 0.52755,1.462943 0.45131,0.45818 0.66653,0.535493 1.48897,0.534911 0.62648,-3.67e-4 1.15763,-0.122175 1.52471,-0.349427 z m -2.0974,-0.618759 c -0.34136,-0.174425 -0.46502,-0.399902 -0.50796,-0.926232 -0.0749,-0.917024 0.20356,-1.220437 1.11662,-1.216996 1.00561,0.0034 1.16896,0.147597 1.22296,1.076649 0.0351,0.604931 -0.0355,0.855844 -0.29552,1.048843 -0.42235,0.313533 -0.94538,0.319571 -1.5361,0.01773 z m 6.28312,0.280255 c 0.0739,-0.776529 0.41158,-0.764659 1.34595,0.0473 0.46512,0.40419 0.92616,0.641309 1.24693,0.641309 0.63155,0 0.63596,-0.12021 0.028,-0.76441 l -0.48092,-0.509612 0.48092,-0.384052 c 0.36906,-0.294716 0.48092,-0.54482 0.48092,-1.07527 0,-1.113152 -0.37882,-1.322542 -2.27834,-1.25937 l -1.60198,0.05325 -0.0523,1.72694 c -0.0591,1.9489 0.007,2.265354 0.45784,2.178734 0.2086,-0.0401 0.33566,-0.263207 0.37295,-0.654849 z m 0.0337,-1.861342 V 96.1955 h 1.08288 c 0.74745,0 1.08202,0.07094 1.08012,0.229037 -0.006,0.496274 -0.3449,0.717979 -1.23433,0.807445 l -0.92867,0.09341 z m 9.11423,2.091891 c 0,-0.32782 -0.138,-0.372147 -1.30848,-0.420305 -1.16031,-0.04771 -1.30848,-0.09443 -1.30848,-0.412265 0,-0.321157 0.12962,-0.358429 1.24647,-0.358429 1.15759,0 1.23973,-0.02611 1.15206,-0.36646 -0.082,-0.318179 -0.24617,-0.366455 -1.24646,-0.366455 -1.02315,0 -1.15207,-0.0401 -1.15207,-0.358434 0,-0.317846 0.14817,-0.364529 1.30848,-0.412273 1.17048,-0.04813 1.30848,-0.09247 1.30848,-0.42029 0,-0.34074 -0.12032,-0.366461 -1.71456,-0.366461 h -1.71456 l -0.0532,1.649072 c -0.0692,2.14536 0.10345,2.329446 2.11232,2.251745 1.23227,-0.04764 1.37,-0.08981 1.37,-0.419445 z m -30.56543,-5.144025 c 0.3086,-0.162015 0.75372,-0.513822 0.98915,-0.781794 0.40426,-0.460132 2.23359,-3.951946 2.23359,-4.263457 0,-0.07986 0.37378,-0.953171 0.83061,-1.940685 0.84906,-1.835403 1.11944,-2.43446 1.96813,-4.3607 1.58213,-3.590874 2.40888,-4.983179 3.79401,-6.389419 0.45968,-0.466683 1.03233,-0.898602 1.27255,-0.959814 0.30973,-0.07891 0.43677,-0.238746 0.43677,-0.549502 V 74.02474 h -2.97791 c -3.46376,0 -3.31863,-0.118319 -2.43648,1.986296 0.2978,0.710456 0.54143,1.578932 0.54143,1.929944 0,0.736046 -1.40667,4.190805 -1.64538,4.041019 -0.0877,-0.05498 -0.15941,-0.185457 -0.15941,-0.28989 0,-0.104419 -0.27794,-0.779798 -0.61766,-1.500824 -1.72552,-3.662369 -1.80679,-3.882286 -1.74935,-4.734169 0.0119,-0.169572 0.18321,-0.360643 0.38173,-0.424612 0.23065,-0.07432 0.36096,-0.277238 0.36096,-0.562044 v -0.44572 h -4.24127 c -4.1114,0 -4.24128,0.01119 -4.24128,0.363996 0,0.237833 0.20429,0.450658 0.58939,0.614009 0.32416,0.137508 0.83895,0.538602 1.144,0.891324 0.61051,0.705935 0.71123,0.905719 2.66008,5.276621 2.74503,6.156601 2.78238,6.229801 3.17842,6.229801 0.20308,0 0.36922,0.03385 0.36922,0.07518 0,0.04134 -0.41282,1.010181 -0.91738,2.15295 -1.24836,2.827328 -1.77229,3.318513 -2.07032,1.940922 -0.19281,-0.891233 -0.58249,-1.378996 -1.29149,-1.616552 -1.41006,-0.472452 -2.75732,0.535409 -2.75884,2.063823 -0.002,1.728706 2.46307,2.685666 4.35673,1.691498 z M 193.84598,87.51462 c 3.09747,-1.109502 5.08336,-4.383069 4.67447,-7.7055 -0.26447,-2.149017 -1.84088,-4.446947 -3.72003,-5.422695 -0.97167,-0.504535 -2.71321,-0.911508 -3.89553,-0.910318 -3.53642,0.0034 -5.98031,1.332521 -7.29901,3.969162 -0.59077,1.181184 -0.61606,1.31489 -0.61606,3.257299 0,1.870437 0.0407,2.109586 0.53055,3.122605 1.40711,2.909571 4.27294,4.389675 7.922,4.091454 0.91302,-0.07461 1.99465,-0.255518 2.40361,-0.402007 z m -4.02761,-0.884239 c -1.56755,-1.739466 -1.95436,-6.959467 -0.77007,-10.391822 0.416,-1.205665 0.97466,-1.849356 1.59825,-1.841538 0.81058,0.01025 1.35137,0.679203 1.92067,2.376156 0.47664,1.420742 0.49229,5.975507 0.0265,7.695639 -0.58306,2.152971 -1.87575,3.159793 -2.77531,2.161565 z m 52.49598,1.025562 c 0.51458,-0.270147 0.70279,-0.270147 2.30004,0 3.27674,0.554217 5.87628,0.344259 7.7699,-0.627556 1.19187,-0.611661 1.83881,-1.271004 2.33164,-2.376343 0.47919,-1.074725 0.47094,-2.056365 -0.0257,-3.066109 -0.67007,-1.362119 -1.84722,-2.12775 -4.96576,-3.229779 -1.9759,-0.698242 -2.84271,-1.09827 -3.34104,-1.541864 -0.8922,-0.794196 0.151,-2.422307 1.55316,-2.424009 1.08058,-0.0014 2.39501,0.535692 3.30774,1.351343 0.81256,0.726143 1.50101,1.851434 1.50101,2.453442 0,0.428733 0.33968,0.776864 0.75802,0.776864 0.29773,0 0.32486,-0.219426 0.32486,-2.626289 0,-1.44446 -0.0435,-2.670566 -0.0969,-2.72468 -0.0533,-0.05409 -0.43385,0.01947 -0.84566,0.163503 -0.66156,0.231405 -0.94703,0.22565 -2.45187,-0.04944 -3.07286,-0.56171 -6.66091,0.03476 -8.02424,1.333981 -1.10731,1.055216 -1.47115,2.559018 -0.93461,3.862993 0.55911,1.358871 1.46602,2.012389 4.37091,3.14971 3.40584,1.333442 4.32834,2.232431 3.83817,3.740319 -0.28701,0.882902 -1.4782,1.483172 -2.5783,1.299273 -2.46341,-0.411794 -4.3525,-2.18205 -4.8836,-4.576406 -0.21578,-0.972763 -0.29418,-1.099377 -0.68079,-1.099377 h -0.43693 l 0.0673,2.378941 c 0.037,1.308421 0.0917,2.503989 0.12156,2.656827 0.0299,0.15284 0.0605,0.545859 0.0681,0.87338 0.0157,0.673789 0.15791,0.718762 0.95313,0.301268 z m -69.7021,-0.618423 c 0,-0.24845 -0.15659,-0.395976 -0.49631,-0.467584 -0.65902,-0.138919 -1.62066,-0.629688 -1.89774,-0.968519 -0.14954,-0.182872 -0.24398,-1.228253 -0.28694,-3.17619 l -0.0641,-2.903602 h 1.08675 1.08673 l 0.89072,2.336171 c 0.48989,1.284896 1.15717,3.057645 1.48285,3.93944 l 0.59212,1.603255 h 4.21732 c 4.08507,0 4.21732,-0.01131 4.21732,-0.363374 0,-0.249015 -0.26979,-0.503122 -0.85728,-0.807445 -0.95796,-0.496232 -1.64477,-1.17128 -2.16435,-2.127312 -0.19169,-0.352715 -0.61647,-1.136025 -0.94397,-1.740679 -0.32751,-0.604662 -0.91654,-1.66232 -1.30897,-2.350354 -0.39241,-0.688034 -0.68594,-1.268469 -0.65225,-1.289841 0.0337,-0.0214 0.49666,-0.239528 1.02885,-0.484785 2.01226,-0.927306 2.97219,-2.811282 2.56679,-5.037659 -0.21337,-1.171849 -0.2224,-1.190908 -1.06301,-2.244911 -0.69588,-0.872506 -2.4847,-1.857612 -4.2762,-2.354895 -1.48466,-0.412114 -7.40103,-0.526428 -11.18975,-0.216206 l -2.88768,0.23644 -0.0549,0.481572 c -0.0504,0.441815 0.0119,0.491746 0.75434,0.604792 0.44513,0.06773 1.01808,0.289925 1.27323,0.493679 l 0.4639,0.370463 v 7.215645 c 0,4.916053 -0.0641,7.358532 -0.20122,7.664003 -0.19259,0.429127 -1.10959,0.95446 -1.87429,1.073761 -0.21399,0.03338 -0.38446,0.223421 -0.41864,0.46671 l -0.0577,0.410396 h 5.51719 c 5.37918,0 5.51718,-0.0091 5.51718,-0.362971 z m -2.67839,-12.234053 c 0.0548,-3.227084 0.1018,-3.698116 0.43478,-4.351704 0.90019,-1.767168 3.17622,-1.792701 4.23276,-0.04751 1.40676,2.323726 0.71687,5.814583 -1.41697,7.169944 -0.70404,0.447181 -2.04368,0.848019 -2.83418,0.848019 h -0.47784 z m 35.52571,12.252909 c 0,-0.189259 -0.1825,-0.467133 -0.40556,-0.6175 -0.39427,-0.265768 -0.39722,-0.290643 -0.10583,-0.892686 0.41133,-0.849682 1.9444,-2.571593 2.16586,-2.432639 0.38026,0.238602 1.77459,2.328462 1.77459,2.659827 0,0.191447 -0.16244,0.489287 -0.36096,0.661864 -0.19853,0.172575 -0.36096,0.461744 -0.36096,0.642603 0,0.309044 0.27969,0.325886 4.64735,0.279931 4.49759,-0.0473 4.64735,-0.0606 4.64735,-0.412252 0,-0.278233 -0.15945,-0.389666 -0.68072,-0.475685 -0.3744,-0.06177 -0.89236,-0.310541 -1.15102,-0.552797 -0.44763,-0.419224 -2.81592,-3.365133 -3.58264,-4.456429 -0.19853,-0.282568 -0.44512,-0.607693 -0.54798,-0.722492 -0.10287,-0.114802 -0.40724,-0.504848 -0.67638,-0.866766 l -0.48935,-0.658034 1.48853,-1.554204 c 1.52605,-1.593387 2.85953,-2.441974 4.1789,-2.659342 0.60681,-0.09996 0.93696,-0.466212 0.72868,-0.808345 -0.0558,-0.09168 -1.38666,-0.16669 -2.95745,-0.16669 -2.72962,0 -2.86027,0.01662 -2.95295,0.376518 -0.072,0.279749 0.0165,0.42031 0.34453,0.546939 0.91077,0.35155 0.73949,1.15423 -0.56203,2.633892 -0.92919,1.056351 -0.91889,1.060096 -2.16247,-0.787666 -0.85377,-1.268582 -0.91729,-1.735402 -0.25987,-1.909946 0.20434,-0.05423 0.34848,-0.251191 0.34848,-0.476129 0,-0.379099 -0.053,-0.383608 -4.512,-0.383608 -4.41492,0 -4.51199,0.0081 -4.51199,0.37221 0,0.204716 0.14212,0.416101 0.31584,0.46975 1.07225,0.33115 1.62705,0.873047 3.96091,3.868816 1.37018,1.758782 2.51832,3.273595 2.55142,3.366255 0.1018,0.284993 -1.91726,2.419224 -2.97648,3.146219 -0.89359,0.61333 -1.79178,0.965464 -3.35538,1.315465 -0.33758,0.07558 -0.49631,0.227188 -0.49631,0.474065 0,0.347139 0.12987,0.362971 2.97792,0.362971 2.79312,0 2.97791,-0.02133 2.97791,-0.344115 z m -44.21754,-7.699931 c 0,-0.09085 -0.36913,-1.554391 -0.82026,-3.252321 -0.45115,-1.697936 -1.02667,-3.870456 -1.27893,-4.827825 -0.50604,-1.920388 -0.49169,-3.09599 0.0491,-4.025485 0.28159,-0.483948 0.2914,-0.722667 0.0997,-2.424135 -0.72246,-6.411282 -0.33191,-12.219185 1.2392,-18.428133 0.53074,-2.097507 1.2393,-4.342293 1.71924,-5.446725 0.13138,-0.302334 0.41069,-1.003187 0.62069,-1.557453 0.63453,-1.674834 2.91787,-6.027612 4.13301,-7.878866 6.69734,-10.203384 16.30639,-17.383674 27.71723,-20.7115 3.60415,-1.0511062 6.85203,-1.5941629 10.82879,-1.8106192 11.11246,-0.6048523 21.77651,2.4104032 30.71044,8.6833772 4.81765,3.382722 9.69768,8.300609 12.64131,12.739366 3.01349,4.544135 4.63425,7.875597 6.28445,12.917676 1.88571,5.761732 2.53503,10.403761 2.38135,17.024809 -0.0982,4.234765 -0.41424,6.967771 -1.14861,9.935901 -0.2651,1.071428 -0.26576,1.259246 -0.007,2.131934 0.15574,0.526342 0.33621,1.389867 0.40107,1.918945 0.0649,0.529072 0.18808,0.961953 0.27384,0.961953 0.42371,0 1.90212,-6.494037 2.3568,-10.352465 0.29583,-2.510347 0.30521,-9.830349 0.0154,-12.001533 -1.3457,-10.081 -4.8985,-18.774457 -10.73742,-26.273656 -1.6639,-2.137042 -6.30649,-6.910915 -8.16224,-8.393062 -1.35914,-1.085527 -4.88072,-3.567916 -5.77111,-4.06811 -0.29778,-0.167293 -1.19116,-0.675894 -1.98526,-1.130229 -0.79412,-0.454342 -1.80933,-0.987771 -2.25601,-1.185409 -0.44669,-0.197639 -0.94725,-0.43804 -1.11237,-0.534237 -0.68252,-0.397632 -5.06679,-2.0282537 -6.82874,-2.5397814 -9.99591,-2.902014 -20.74423,-2.6846869 -30.48969,0.6164888 -7.6279,2.5838796 -14.40074,6.8199336 -20.05141,12.5410966 -8.00445,8.104319 -12.92285,17.967964 -14.7104,29.501067 -0.45429,2.931005 -0.55816,10.061817 -0.19313,13.257455 0.36737,3.216136 1.00964,6.442785 1.82803,9.183906 0.80491,2.695914 1.891,5.59275 2.09684,5.59275 0.0861,0 0.15664,-0.07433 0.15664,-0.16518 z m 76.68183,-5.975485 c 0.72293,-0.835907 1.03291,-1.467168 1.18908,-2.421517 0.2647,-1.61757 -0.57935,-2.798048 -2.00066,-2.798048 -1.57367,0 -2.40113,1.492189 -1.89198,3.411857 0.20922,0.788816 2.16756,3.797381 2.57296,3.797381 0.13018,0 -0.17562,-1.635593 0.1306,-1.989673 z m -21.81598,-15.051256 3.57993,-0.07232 -3.30921,-0.201427 c -1.91306,-0.116445 -23.39768,-0.276558 -23.91357,-0.02882 -0.40384,0.193913 -0.32807,0.220527 0.72192,0.253524 6.96607,0.218927 9.4709,0.255589 15.07006,0.22059 3.57349,-0.02237 7.10639,-0.09953 7.85087,-0.17153 z m 10.60564,-0.03733 c 0.17236,-0.08681 0.84993,-0.41002 1.50572,-0.718235 3.16463,-1.48736 4.98553,-4.585921 5.06089,-8.611946 l 0.0271,-1.443678 1.04882,-0.21993 c 2.90036,-0.608187 3.67087,-3.821179 1.3046,-5.440098 l -0.56221,-0.384646 0.8245,-0.310237 c 0.64225,-0.241669 0.85505,-0.260034 0.96277,-0.08309 0.20229,0.3323 0.36863,0.07511 0.4006,-0.619396 l 0.028,-0.608679 -2.07551,-0.149848 c -1.65473,-0.119474 -20.5732,-0.167291 -32.03516,-0.08098 -1.19117,0.009 -6.9778,-0.0511 -12.85919,-0.133567 l -10.69342,-0.149867 v 0.66939 c 0,0.513151 -0.0737,0.670762 -0.31584,0.675228 -0.66608,0.01226 0.29802,0.494246 1.24336,0.621565 l 0.92095,0.124031 -0.73002,0.634385 c -0.85967,0.747055 -1.39876,2.113524 -1.20612,3.057202 0.3003,1.471024 1.5312,2.519709 2.9575,2.519709 h 0.73977 l 0.004,0.961953 c 0.0107,3.125022 1.62765,6.223541 4.23467,8.112224 0.6227,0.451116 1.19669,0.820215 1.27554,0.820215 0.0789,0 0.2775,0.123255 0.44146,0.273906 0.16397,0.150651 0.69827,0.322355 1.18733,0.381573 0.62867,0.07612 0.81242,0.05312 0.62712,-0.07858 -0.14416,-0.102444 -0.32074,-0.149467 -0.3924,-0.104504 -0.15889,0.0997 -1.53199,-0.627541 -2.11706,-1.121246 -1.52141,-1.283865 -2.60316,-2.695521 -3.22359,-4.206726 -0.42622,-1.038137 -1.04368,-3.152949 -1.2108,-4.147021 l -0.11188,-0.665667 0.8615,-0.132922 c 1.00371,-0.154876 3.89008,-0.154439 10.42691,0.0013 3.28633,0.07843 6.0175,0.0293 9.11423,-0.16396 l 4.42175,-0.275935 2.97793,0.648643 c 1.63784,0.356758 3.04749,0.692084 3.13254,0.745165 0.0851,0.05312 0.0444,0.166054 -0.0903,0.251047 -0.14976,0.0945 0.10571,0.142576 0.65752,0.123774 0.49632,-0.01691 1.10544,0.03122 1.3536,0.1069 0.4201,0.128165 0.30763,0.250962 0,0 -0.30234,-0.246642 -0.0283,-0.45928 1.92559,-1.082672 l 2.1352,-0.681163 3.33888,0.211141 c 1.83638,0.116139 4.5368,0.20991 6.00095,0.208387 3.07426,-0.0034 2.82092,-0.242687 2.39098,2.260396 -0.35886,2.089203 -1.24584,3.993891 -2.37392,5.097728 -1.53653,1.503498 -3.27482,2.717584 -3.9082,2.729627 -2.93667,0.05582 -5.74948,0.244633 -5.44869,0.36572 0.49281,0.198401 5.433,0.209619 5.82293,0.01323 z M 215.025,48.205807 c -10.41749,-2.806043 -20.99877,-4.86851 -31.58397,-6.878478 -0.74446,-0.142685 -1.82058,-0.312097 -2.39135,-0.376467 -0.94676,-0.106782 -1.03775,-0.156052 -1.03775,-0.561933 0,-0.244689 0.10156,-0.442922 0.2256,-0.440518 0.12408,0.002 1.68747,0.08568 3.47423,0.185075 1.78675,0.09939 5.60389,0.162867 8.48254,0.141059 2.87866,-0.02181 7.54858,-0.02838 10.3776,-0.01468 2.82901,0.01377 11.69509,0.05139 19.70238,0.08361 8.00729,0.03219 14.54516,0.07098 14.52862,0.08611 -5.50267,2.439781 -10.62791,3.439572 -16.54399,5.960999 -0.24816,0.109309 -0.61363,0.25912 -0.81216,0.332929 -0.54858,0.203955 -1.14343,0.461364 -2.50186,1.082639 -1.32358,0.605345 -1.49869,0.641794 -1.91989,0.399646 z m -32.70824,-1.338913 c -0.90823,-0.240167 -1.7634,-1.240007 -1.7634,-2.061725 0,-0.836094 0.22064,-1.37214 0.81117,-1.970817 4.87663,-1.064437 16.83803,2.453861 23.82432,3.826816 l -8.75327,0.147093 c -4.81429,0.0809 -9.80907,0.167264 -11.09951,0.191924 -1.29043,0.02466 -2.64911,-0.03524 -3.01931,-0.133143 z m 46.78567,-0.173775 c -1.14154,-0.08872 -3.02992,-0.138781 -4.1964,-0.111248 -1.16649,0.02751 -2.12079,0.03547 -2.12065,0.01752 1.3e-4,-0.01785 0.67028,-0.294188 1.48921,-0.61405 2.85488,-0.955462 9.95575,-4.75224 11.53071,-3.082356 0.72101,0.783609 0.82542,1.595 0.33382,2.594336 -0.71202,1.447375 -1.68086,1.612017 -7.03669,1.195768 z m -33.28575,-8.127675 c 0.30485,-0.232279 0.79214,-0.738519 1.08288,-1.124987 1.55852,-2.071655 2.41582,-2.384266 3.39668,-1.238595 2.07646,2.425348 1.95932,2.334607 3.12441,2.42016 1.29413,0.09503 1.97586,-0.203925 2.70889,-1.187929 1.0063,-1.350866 1.47862,-1.704329 2.27744,-1.704329 0.69518,0 0.83181,0.0949 2.10155,1.459772 1.8122,1.947957 2.51052,2.1946 4.08552,1.442979 0.51018,-0.243463 1.10651,-0.753872 1.55204,-1.328415 0.84217,-1.086019 1.2764,-1.375665 2.0758,-1.384612 0.49572,-0.0055 0.71429,0.159896 1.50435,1.138691 1.19911,1.485555 1.87443,1.969718 2.74738,1.969718 0.93625,0 1.47437,-0.322875 2.74844,-1.649067 1.86771,-1.944107 2.56186,-2.062826 3.49103,-0.59705 0.88303,1.393012 1.67276,1.909003 2.93384,1.916918 1.21596,0.0077 1.66373,-0.26696 2.90126,-1.779211 0.76612,-0.936183 2.35956,-0.06111 2.6926,-0.130512 0.58575,-0.122056 -0.38939,-1.792125 -0.94305,-1.792125 -0.57877,0 -1.44721,0.616378 -2.27835,1.617076 -1.64324,1.978484 -3.02754,1.844204 -4.46229,-0.432844 -1.33455,-2.118036 -2.9723,-2.099601 -5.01507,0.05644 -1.12765,1.190182 -1.95225,1.70054 -2.50883,1.552777 -0.19443,-0.0516 -0.57167,-0.389667 -0.83833,-0.75121 -0.26664,-0.361546 -0.85898,-1.051408 -1.3163,-1.533027 -0.77471,-0.815866 -0.89307,-0.875673 -1.73299,-0.875673 -1.08256,0 -1.82926,0.451345 -2.72981,1.650029 -0.77297,1.028877 -1.65655,1.648102 -2.35167,1.648102 -0.42869,0 -0.82571,-0.292388 -1.98076,-1.458753 -1.52474,-1.539669 -1.95566,-1.761524 -3.11488,-1.60367 -0.99131,0.134984 -1.49096,0.514617 -2.23824,1.700587 -0.73229,1.162188 -1.57694,1.645423 -2.58561,1.479238 -0.74457,-0.122665 -1.0612,-0.398254 -2.0615,-1.794266 -0.56977,-0.795179 -0.96756,-1.149154 -1.54545,-1.375248 -0.7388,-0.289038 -0.82055,-0.286635 -1.61478,0.04758 -0.61097,0.257063 -1.10687,0.688753 -1.83877,1.600643 -1.22453,1.525679 -1.48644,1.693602 -2.18404,1.400244 -0.68554,-0.28829 -1.09426,-0.672679 -1.58255,-1.488387 -0.60425,-1.009438 -1.56327,-1.667452 -2.57387,-1.766039 -1.21339,-0.118369 -2.26122,0.435173 -3.32322,1.755575 -1.44561,1.797328 -2.30223,1.978643 -3.51777,0.744585 -1.20867,-1.227092 -2.44324,-2.173726 -2.83488,-2.173726 -0.61192,0 -0.50807,0.259355 0.20929,0.522708 0.34437,0.126427 0.89258,0.527769 1.21822,0.891862 1.74662,1.95284 2.14603,2.265957 3.18727,2.498609 0.73083,0.163303 1.70522,-0.390402 2.73384,-1.553532 1.17824,-1.332312 1.80241,-1.701413 2.61535,-1.546586 0.58786,0.111971 1.64249,1.099141 2.35701,2.206246 0.43539,0.674606 1.62334,1.225521 2.33221,1.081567 0.29779,-0.06045 0.79086,-0.3 1.0957,-0.532279 z m 37.55867,-5.176816 c 0.10179,-1.10072 -0.18578,-3.337806 -0.58557,-4.555728 -0.85756,-2.612383 -2.38573,-4.746027 -4.12438,-5.758458 -1.60679,-0.935652 -1.58812,-0.710015 0.0919,1.111863 2.76105,2.994059 4.14388,6.119664 4.15934,9.401347 0.006,1.316856 0.33151,1.175687 0.45862,-0.199024 z m -44.06875,0.838741 c 2.48159,-0.02895 11.41534,-0.007 19.85277,0.04972 18.15602,0.121156 23.44819,0.06489 22.92092,-0.243713 -0.22627,-0.132436 -2.07817,-0.266149 -4.96319,-0.358352 -4.11868,-0.131632 -9.80522,-0.143309 -35.3461,-0.07254 -4.00483,0.01107 -7.30525,-0.02106 -7.33427,-0.07145 -0.0779,-0.135303 0.25063,-2.115789 0.57755,-3.481356 0.83775,-3.499263 3.57815,-6.568778 7.13322,-7.989901 5.497,-2.19741 17.55034,-2.903823 27.83024,-1.631059 1.99476,0.246973 2.47743,0.246183 2.23134,-0.0034 -0.36734,-0.372921 -6.15411,-1.121765 -11.96683,-1.548587 -6.47139,-0.475179 -12.71797,0.121966 -17.12464,1.637058 -5.82969,2.004333 -8.98738,5.981829 -9.43582,11.885515 -0.13793,1.815909 -0.0463,2.110174 0.61634,1.97917 0.27305,-0.05403 2.52686,-0.121857 5.00847,-0.150823 z m 37.02908,-12.346687 c 0.18723,-0.495346 -0.51421,-0.984315 -1.72186,-1.200272 -1.4157,-0.25317 -1.78283,-0.004 -0.70533,0.478533 0.42009,0.188172 0.92313,0.492818 1.11785,0.676988 0.43531,0.411744 1.16125,0.436559 1.30934,0.04474 z"
       id="path325"
       sodipodi:nodetypes="cccccccccsssscssssssssssssssscscssssssssscssscscscsssssccscssscssscssscssscscsssccccsssssccscssssssssssscsssssccssccssssssscscccsssssscscsscscscscsscscsccscscsssccsssccccsssssscscssssscscsssssscssscssssccsscssscsscccsscsccsssssssssscsssssssssssscssssssssscsssssssssscsssscsscsssssssssscssssscsssssscsssssssccscsscssscccsscsssssssssssscccscsssscsccssssscssssssssssssssscsssssssssssssssssssssscssssssssssssssssscssssscssssssssssccsssccsssccccsccsscssscscccssscsssccssssssssscscscsccscsccscssssccsccccsscsssccssccsccccccsssscccsscsssssssssssssssssssssssssssssssssssssssssssssssscsscsccssssssscssscccsssssssss" /><rect
       style="fill:#ffffff;fill-opacity:1;stroke:none;stroke-width:0.706001;stroke-opacity:0.996078"
       id="rect1436"
       width="94.78717"
       height="5.5513468"
       x="161.40332"
       y="94.372894"
       ry="1.1645454e-05" /><text
       xml:space="preserve"
       style="font-style:normal;font-variant:normal;font-weight:normal;font-stretch:normal;font-size:7.13198px;font-family:Cinzel;-inkscape-font-specification:'Cinzel, Normal';font-variant-ligatures:normal;font-variant-caps:normal;font-variant-numeric:normal;font-variant-east-asian:normal;letter-spacing:0px;word-spacing:1.02165px;fill:#41666f;fill-opacity:1;stroke:none;stroke-width:0.54484;stroke-dasharray:none;stroke-opacity:1"
       id="text495"
       x="171.31831"
       y="99.617592">BURGER AND MORE </text><ellipse
       style="fill:#ffffff;fill-opacity:1;stroke:none;stroke-width:0.706001;stroke-opacity:0.996078"
       id="path1618"
       cx="208.4375"
       cy="39.744408"
       rx="37.679173"
       ry="26.401426" /><path
       style="fill:#41666f;stroke-width:0.177423"
       d="m 186.72346,61.372279 c -1.6563,-0.64679 -2.33996,-1.631045 -3.06514,-4.412881 -0.42506,-1.630559 -0.46827,-2.649658 -0.14571,-3.436424 0.0874,-0.213095 0.045,-0.310492 -0.135,-0.310492 -0.14427,0 -0.59936,-0.299402 -1.01131,-0.665338 -0.54871,-0.487403 -0.80562,-0.888602 -0.96066,-1.500176 -0.15909,-0.627596 -0.36182,-0.936052 -0.81666,-1.242567 -0.33277,-0.22425 -0.76327,-0.678678 -0.95669,-1.009841 -0.31832,-0.545046 -0.3327,-0.712703 -0.15176,-1.769027 0.10993,-0.641804 0.44735,-1.646749 0.74981,-2.23321 0.35385,-0.6861 0.47749,-1.09044 0.34676,-1.134018 -0.46841,-0.156135 -1.41235,-1.159937 -1.75354,-1.864738 -0.25525,-0.527278 -0.36639,-1.105304 -0.36523,-1.899504 0.002,-1.573209 0.68454,-2.780373 1.99663,-3.53286 0.51106,-0.293089 1.1023,-0.533638 1.31389,-0.534555 0.86851,-0.0038 0.96188,-0.161713 0.50851,-0.860334 -0.64406,-0.992462 -0.85016,-1.945879 -0.77656,-3.592278 0.0933,-2.087293 0.49752,-2.815456 2.89954,-5.223567 2.18229,-2.187812 3.65811,-3.241908 6.64637,-4.747151 9.97129,-5.022733 26.21211,-4.82097 35.62914,0.442623 3.82768,2.139459 7.13918,5.115593 8.21086,7.379316 0.77082,1.628208 0.63183,4.269961 -0.29664,5.638136 -0.23557,0.347127 -0.38901,0.694719 -0.34099,0.772425 0.048,0.07771 0.40842,0.184351 0.80086,0.23699 0.40673,0.05455 1.07165,0.352929 1.54633,0.693894 2.14699,1.542183 2.32289,4.751534 0.35512,6.479262 l -0.6082,0.534004 1.0427,1.037239 c 1.14252,1.136532 1.7496,2.195141 1.7496,3.050902 0,1.632284 -1.44626,3.060445 -3.09921,3.060445 -0.49146,0 -0.62669,0.07082 -0.62669,0.328226 0,0.556301 -1.00005,1.754567 -1.665,1.995019 -0.47492,0.171731 -0.58685,0.289415 -0.47832,0.502928 0.37984,0.747279 0.3562,1.541243 -0.0976,3.277176 -0.73809,2.823483 -1.31801,3.690944 -2.99309,4.477095 l -0.88712,0.416343 -20.84725,-0.0066 c -20.11269,-0.0063 -20.87794,-0.01854 -21.71777,-0.346497 z m 42.9409,-1.705715 c 0.86767,-0.411734 1.24566,-1.044355 1.75097,-2.930495 0.55971,-2.089203 0.55691,-2.197795 -0.0728,-2.827541 l -0.51862,-0.518622 H 208.3581 185.89232 l -0.4355,0.435494 c -0.55702,0.557025 -0.55779,1.162848 -0.004,3.175596 0.44966,1.634356 0.71923,2.073923 1.60891,2.62347 0.51023,0.31517 1.39056,0.328809 21.264,0.329444 18.76133,5.33e-4 20.78941,-0.02671 21.33866,-0.287346 z m -42.46809,-0.85388 c -0.47761,-0.401885 -1.1104,-2.030547 -1.1104,-2.857931 0,-0.589003 0.31161,-0.04606 0.61336,1.068693 0.45382,1.676543 0.75509,1.866587 2.95903,1.866587 1.0486,0 1.75032,0.07113 1.75032,0.177423 0,0.106935 -0.73474,0.177424 -1.84934,0.177424 -1.70081,0 -1.89059,-0.03471 -2.36297,-0.432196 z m 30.82582,-4.890508 c 0,-0.114752 2.09951,-0.177423 5.94369,-0.177423 3.84417,0 5.94368,0.06267 5.94368,0.177423 0,0.114752 -2.09951,0.177423 -5.94368,0.177423 -3.84418,0 -5.94369,-0.06267 -5.94369,-0.177423 z m 15.35519,-2.741999 c 0.70318,-0.703176 0.57508,-1.052516 -0.51157,-1.395051 -1.59612,-0.503131 -2.23108,-0.408633 -4.25298,0.632937 -1.72334,0.887772 -1.87061,0.930884 -3.13885,0.918899 -1.20028,-0.01134 -1.53652,-0.102624 -3.43114,-0.931473 -1.15526,-0.505395 -2.32405,-0.918899 -2.59733,-0.918899 -0.27328,0 -1.24834,0.394348 -2.1668,0.876328 -2.64509,1.388065 -3.48899,1.380379 -6.57132,-0.05986 -2.36137,-1.103364 -2.38706,-1.105215 -4.93492,-0.35562 -3.30333,0.971861 -3.65986,1.032622 -4.68612,0.798624 -0.49237,-0.112265 -1.31055,-0.488576 -1.81817,-0.836248 -1.37258,-0.940077 -1.9064,-0.948095 -4.68843,-0.07042 -3.21329,1.013727 -3.66585,1.109688 -4.58812,0.972889 -0.89374,-0.132563 -1.47197,-0.400585 -2.72752,-1.26425 -1.04182,-0.716647 -2.00638,-0.78156 -3.30599,-0.222482 -0.97257,0.418385 -1.13446,0.666972 -0.8764,1.345725 0.37594,0.988779 -1.13781,0.932664 25.32332,0.938749 l 24.53685,0.0056 z m -5.35127,-2.438296 c 2.41419,-1.225286 3.1072,-1.276478 5.81924,-0.429858 1.13163,0.353263 2.22598,0.642296 2.4319,0.642296 0.53439,0 1.0841,-0.621683 1.0841,-1.226031 0,-0.703356 -1.12703,-2.093877 -2.36091,-2.912886 l -0.98156,-0.651516 h -25.54221 -25.54222 l -0.55308,0.565711 c -0.57439,0.587497 -1.26325,2.157434 -1.26325,2.878978 0,0.851136 0.43045,0.922345 1.83753,0.303978 2.36501,-1.039345 3.55579,-0.977215 5.39426,0.28145 1.67683,1.148004 2.00729,1.151803 5.51937,0.06346 1.5973,-0.494976 3.11427,-0.899512 3.37105,-0.898968 0.81351,0.0017 1.81998,0.365124 2.78401,1.005204 1.36161,0.904059 1.88639,0.91179 4.74045,0.06982 3.35827,-0.990719 3.79865,-0.973636 6.56503,0.254663 1.37594,0.610927 2.44322,0.975828 2.85415,0.975828 0.44287,0 1.22487,-0.294555 2.40402,-0.905508 2.4093,-1.248336 3.04903,-1.251441 5.9585,-0.02892 1.17099,0.492037 2.28876,0.932219 2.48393,0.978183 0.60304,0.142024 1.17806,-0.04337 2.99569,-0.965884 z m -14.88307,0.182623 c -0.72586,-0.266006 -2.39521,-1.263361 -2.39521,-1.431023 0,-0.25252 0.33884,-0.138313 1.18872,0.400668 1.70165,1.079156 2.34643,1.054161 4.59148,-0.177991 1.34972,-0.740774 1.84681,-0.69753 0.6514,0.05667 -1.8535,1.169391 -3.05364,1.51182 -4.03639,1.151679 z m -24.44387,-1.102168 c -0.62432,-0.427425 -1.30801,-0.832007 -1.51932,-0.899073 -0.2113,-0.06707 -0.38419,-0.196397 -0.38419,-0.287405 0,-0.387184 0.71849,-0.08162 2.27998,0.969651 1.20726,0.812788 1.73086,0.814919 4.01673,0.01634 1.80694,-0.631255 2.22132,-0.722097 2.21743,-0.486126 -0.002,0.137619 -1.72695,0.773999 -3.28014,1.210322 -1.51958,0.426879 -2.06796,0.340648 -3.33049,-0.523714 z m -7.22621,-0.45648 c 0,-0.706615 1.29358,-2.945815 1.5944,-2.759904 0.0841,0.05198 -0.11753,0.496422 -0.44809,0.987635 -0.33056,0.491215 -0.65275,1.168888 -0.71599,1.505942 -0.12267,0.653946 -0.43032,0.844344 -0.43032,0.266327 z m 54.18601,-1.099736 c -0.18589,-0.209931 -0.69294,-0.609134 -1.12677,-0.887117 L 233.74331,44.87358 H 230.407 c -2.10593,0 -3.33631,-0.06543 -3.33631,-0.177424 0,-0.291859 6.45261,-0.230489 7.14699,0.06798 0.63768,0.274089 2.07903,1.466591 2.07903,1.720083 0,0.278448 -0.2842,0.181272 -0.63784,-0.218096 z m 0.0898,-4.482361 c 0.99805,-0.956223 1.13823,-2.369917 0.33612,-3.389636 -0.80614,-1.024844 0.69235,-0.972329 -27.74416,-0.972329 -23.79945,0 -26.24867,0.02632 -26.80013,0.288011 -1.10659,0.525111 -1.69114,1.838375 -1.3195,2.964443 0.19542,0.592131 0.92736,1.407134 1.42925,1.591443 0.14637,0.05375 12.25694,0.08367 26.91237,0.06649 l 26.64624,-0.03124 z m -6.63766,-0.103802 c 0.0653,-0.105707 1.20108,-0.177423 2.80978,-0.177423 3.01492,0 3.32482,-0.09655 3.77602,-1.17644 0.32371,-0.774732 0.62909,-0.790368 0.4134,-0.02117 -0.0889,0.317145 -0.40399,0.796188 -0.70011,1.064541 l -0.53841,0.487915 h -2.93517 c -1.91159,0 -2.89692,-0.06187 -2.82551,-0.177423 z m -38.05732,-3.548468 c 0,-0.11642 3.87374,-0.177424 11.26638,-0.177424 7.39265,0 11.26639,0.061 11.26639,0.177424 0,0.116419 -3.87374,0.177423 -11.26639,0.177423 -7.39264,0 -11.26638,-0.061 -11.26638,-0.177423 z m 40.41146,-2.758533 c 1.44694,-0.604566 2.16005,-1.795264 2.16627,-3.617052 0.005,-1.625436 -0.44469,-2.437757 -2.46778,-4.452401 -1.9042,-1.896243 -3.69443,-3.155246 -6.31079,-4.438142 -6.69573,-3.283167 -16.41046,-4.266817 -25.16564,-2.548095 -6.31314,1.239323 -11.76386,4.13792 -15.06476,8.011158 -1.30113,1.526743 -1.45706,1.892299 -1.45706,3.41582 0,1.451349 0.25179,2.122025 1.10347,2.93913 1.04501,1.002595 -0.28288,0.949731 24.04496,0.957242 19.91213,0.0062 22.56956,-0.02458 23.15133,-0.26766 z m -9.7172,-0.789937 c 0,-0.113632 1.62252,-0.177423 4.51274,-0.177423 2.48202,0 4.70971,-0.07488 4.95042,-0.166404 0.24073,-0.09152 0.66509,-0.464748 0.94303,-0.829392 0.40838,-0.535768 0.50301,-0.835782 0.49313,-1.563475 -0.007,-0.495267 -0.14614,-1.155437 -0.30984,-1.467044 -0.19016,-0.36199 -0.23245,-0.606834 -0.11713,-0.678107 0.24703,-0.152671 0.74182,1.06907 0.82743,2.04307 0.0855,0.972916 -0.44698,2.004113 -1.34865,2.61175 -0.58699,0.395569 -0.70283,0.404449 -5.27565,0.404449 -2.99871,0 -4.67548,-0.06363 -4.67548,-0.177424 z m -36.5065,-0.353889 c -1.8739,-1.142523 -1.66599,-3.608754 0.49089,-5.823075 1.11916,-1.148972 2.76125,-2.394321 3.03623,-2.302659 0.11596,0.03865 -0.18074,0.357819 -0.65933,0.709262 -1.33199,0.978127 -3.05775,2.866558 -3.46878,3.795737 -0.64218,1.451762 -0.27762,2.737896 0.95704,3.376363 0.26858,0.138889 0.48833,0.330316 0.48833,0.425394 0,0.255066 -0.19918,0.212366 -0.84438,-0.181022 z m 23.31802,-8.812989 c -0.2204,-0.220397 -0.11983,-0.907702 0.14785,-1.010419 0.59903,-0.229868 1.16855,0.416575 0.77974,0.885054 -0.21277,0.256372 -0.72708,0.325881 -0.92759,0.125365 z m 5.05583,-0.569838 c -0.36435,-0.230945 -0.18208,-0.988183 0.25283,-1.05032 0.53274,-0.07612 0.86071,0.374371 0.61152,0.839982 -0.20843,0.38947 -0.47819,0.455113 -0.86435,0.210338 z m -10.39579,-0.478157 c -0.15315,-0.153151 -0.27845,-0.346892 -0.27845,-0.430534 0,-0.08364 0.1253,-0.277383 0.27845,-0.430534 0.35077,-0.350771 0.96351,-0.07698 0.96351,0.430534 0,0.50751 -0.61274,0.781305 -0.96351,0.430534 z m 15.76858,-0.461371 c -0.12545,-0.395266 0.33571,-0.925063 0.69964,-0.803756 0.29809,0.09937 0.52433,0.597344 0.4085,0.899189 -0.16822,0.438369 -0.96037,0.370149 -1.10814,-0.09543 z m -23.29256,-0.302436 c -0.13052,-0.08273 -0.21036,-0.340987 -0.17742,-0.573909 0.072,-0.508896 0.80075,-0.594022 1.09479,-0.127875 0.33805,0.53593 -0.34937,1.061812 -0.91737,0.701784 z m 20.01478,-1.535983 c -0.32238,-0.388435 -0.0111,-0.880807 0.55684,-0.880807 0.35308,0 0.42422,0.08927 0.42422,0.53227 0,0.404526 -0.0889,0.544971 -0.37037,0.585188 -0.2037,0.0291 -0.47852,-0.07739 -0.61069,-0.236651 z M 200.5511,21.922997 c -0.49069,-0.358801 -0.27701,-0.912872 0.35206,-0.912872 0.40947,0 0.54236,0.08796 0.58496,0.387198 0.0736,0.517094 -0.50491,0.841645 -0.93702,0.525674 z m 5.08018,0.08453 c -0.3734,-0.236685 -0.18082,-0.988395 0.26965,-1.052526 0.5425,-0.07723 0.86951,0.547314 0.4869,0.929919 -0.3167,0.316698 -0.42313,0.333947 -0.75655,0.122607 z m 5.3878,-0.08453 c -0.49069,-0.358801 -0.277,-0.912872 0.35207,-0.912872 0.40947,0 0.54236,0.08796 0.58495,0.387198 0.0736,0.517094 -0.5049,0.841645 -0.93702,0.525674 z"
       id="path1622" /></g></svg>
