<svg width="127" height="127" viewBox="0 0 127 127" fill="none" xmlns="http://www.w3.org/2000/svg">
<path d="M63.3043 0C28.3615 1.17921e-06 0 28.3591 0 63.3019C0 68.012 0.519331 72.6007 1.49662 77.0183C1.34385 69.9146 2.47362 66.7562 3.11389 65.5602C3.0863 64.8104 3.06754 64.0584 3.06754 63.3019C3.06754 30.016 30.0184 3.06516 63.3043 3.06516C95.7398 3.06516 122.155 28.658 123.483 60.765C124.726 62.6792 125.734 64.5598 126.53 66.4036C126.58 65.3757 126.606 64.342 126.606 63.3019C126.606 28.3591 98.2471 1.17921e-06 63.3043 0ZM110.428 105.552C106.036 108.454 103.225 109.446 101.659 109.763C91.2435 118.369 77.8815 123.539 63.3043 123.539C49.486 123.539 36.7619 118.891 26.6022 111.076C24.1785 110.742 21.9714 110.174 19.9558 109.418C31.286 120.073 46.5363 126.606 63.3043 126.606C82.015 126.606 98.8358 118.472 110.428 105.552Z" fill="white"/>
<path d="M38.6595 63.0461C36.8017 62.3206 36.0348 61.2166 35.2214 58.0962C34.7446 56.2673 34.6962 55.1242 35.058 54.2416C35.156 54.0026 35.1084 53.8934 34.9065 53.8934C34.7447 53.8934 34.2342 53.5575 33.7722 53.1471C33.1567 52.6004 32.8685 52.1503 32.6946 51.4643C32.5162 50.7604 32.2888 50.4144 31.7786 50.0706C31.4053 49.819 30.9224 49.3093 30.7054 48.9379C30.3484 48.3265 30.3323 48.1384 30.5352 46.9536C30.6585 46.2337 31.037 45.1064 31.3763 44.4486C31.7732 43.679 31.9119 43.2255 31.7652 43.1766C31.2398 43.0015 30.181 41.8755 29.7983 41.0849C29.512 40.4935 29.3874 39.8451 29.3887 38.9543C29.391 37.1897 30.1565 35.8356 31.6282 34.9915C32.2015 34.6628 32.8647 34.393 33.102 34.3919C34.0762 34.3877 34.1809 34.2105 33.6724 33.4269C32.95 32.3137 32.7188 31.2443 32.8013 29.3975C32.9059 27.0562 33.3594 26.2395 36.0537 23.5383C38.5016 21.0843 40.1569 19.9019 43.5088 18.2135C54.6935 12.5796 72.9106 12.8059 83.4735 18.71C87.767 21.1098 91.4814 24.4481 92.6835 26.9873C93.5481 28.8136 93.3922 31.7768 92.3508 33.3115C92.0866 33.7008 91.9145 34.0907 91.9683 34.1779C92.0222 34.2651 92.4264 34.3847 92.8666 34.4437C93.3228 34.5049 94.0687 34.8396 94.6011 35.222C97.0094 36.9519 97.2067 40.5518 94.9995 42.4897L94.3172 43.0887L95.4868 44.2522C96.7684 45.527 97.4493 46.7144 97.4493 47.6743C97.4493 49.5052 95.8271 51.1072 93.973 51.1072C93.4217 51.1072 93.27 51.1866 93.27 51.4754C93.27 52.0993 92.1483 53.4434 91.4024 53.7131C90.8697 53.9058 90.7442 54.0378 90.8659 54.2773C91.292 55.1155 91.2655 56.0061 90.7565 57.9532C89.9286 61.1203 89.2781 62.0933 87.3992 62.9751L86.4041 63.4421L63.02 63.4347C40.4599 63.4276 39.6015 63.414 38.6595 63.0461ZM86.8257 61.1328C87.7989 60.671 88.223 59.9614 88.7898 57.8457C89.4176 55.5023 89.4144 55.3805 88.708 54.6741L88.1263 54.0924H62.9267H37.7272L37.2387 54.5809C36.6139 55.2057 36.613 55.8852 37.234 58.1429C37.7383 59.9761 38.0407 60.4692 39.0387 61.0856C39.611 61.4391 40.5984 61.4544 62.8902 61.4551C83.9345 61.4557 86.2096 61.4252 86.8257 61.1328ZM39.1898 60.175C38.6541 59.7243 37.9443 57.8974 37.9443 56.9693C37.9443 56.3087 38.2939 56.9177 38.6323 58.1681C39.1414 60.0486 39.4793 60.2618 41.9514 60.2618C43.1276 60.2618 43.9148 60.3416 43.9148 60.4608C43.9148 60.5808 43.0906 60.6598 41.8404 60.6598C39.9326 60.6598 39.7197 60.6209 39.1898 60.175ZM73.7667 54.6894C73.7667 54.5607 76.1217 54.4904 80.4337 54.4904C84.7456 54.4904 87.1006 54.5607 87.1006 54.6894C87.1006 54.8181 84.7456 54.8884 80.4337 54.8884C76.1217 54.8884 73.7667 54.8181 73.7667 54.6894ZM90.9904 51.6138C91.7792 50.825 91.6355 50.4332 90.4166 50.049C88.6262 49.4846 87.914 49.5906 85.6461 50.7589C83.7131 51.7547 83.5479 51.8031 82.1253 51.7896C80.779 51.7769 80.4018 51.6745 78.2766 50.7448C76.9808 50.1779 75.6698 49.7141 75.3633 49.7141C75.0567 49.7141 73.963 50.1564 72.9328 50.6971C69.9658 52.254 69.0192 52.2454 65.5618 50.6299C62.9131 49.3923 62.8843 49.3902 60.0264 50.231C56.3211 51.3211 55.9212 51.3893 54.77 51.1268C54.2178 51.0009 53.3 50.5788 52.7306 50.1888C51.191 49.1343 50.5922 49.1254 47.4717 50.1098C43.8674 51.2469 43.3598 51.3545 42.3253 51.2011C41.3228 51.0524 40.6742 50.7518 39.2659 49.783C38.0973 48.9792 37.0153 48.9064 35.5576 49.5335C34.4667 50.0028 34.2851 50.2816 34.5745 51.0429C34.9962 52.152 33.2982 52.0891 62.9793 52.0959L90.5019 52.1022L90.9904 51.6138ZM84.988 48.8788C87.6959 47.5044 88.4733 47.447 91.5153 48.3966C92.7846 48.7928 94.0122 49.1171 94.2432 49.1171C94.8426 49.1171 95.4592 48.4197 95.4592 47.7418C95.4592 46.9529 94.195 45.3932 92.811 44.4745L91.71 43.7437H63.0597H34.4093L33.7889 44.3782C33.1446 45.0372 32.372 46.7982 32.372 47.6075C32.372 48.5623 32.8548 48.6421 34.4331 47.9485C37.0859 46.7827 38.4216 46.8524 40.4838 48.2642C42.3646 49.5519 42.7353 49.5562 46.6748 48.3354C48.4664 47.7802 50.168 47.3264 50.456 47.327C51.3685 47.3289 52.4975 47.7366 53.5788 48.4546C55.1061 49.4686 55.6947 49.4773 58.8961 48.5329C62.663 47.4216 63.157 47.4408 66.26 48.8185C67.8034 49.5038 69.0005 49.9131 69.4614 49.9131C69.9582 49.9131 70.8354 49.5827 72.158 48.8974C74.8605 47.4972 75.578 47.4937 78.8416 48.865C80.155 49.4169 81.4088 49.9106 81.6278 49.9622C82.3042 50.1215 82.9492 49.9135 84.988 48.8788ZM68.2938 49.0836C67.4797 48.7852 65.6072 47.6665 65.6072 47.4785C65.6072 47.1952 65.9873 47.3233 66.9406 47.9279C68.8493 49.1383 69.5725 49.1103 72.0908 47.7282C73.6047 46.8973 74.1623 46.9458 72.8214 47.7918C70.7424 49.1035 69.3962 49.4876 68.2938 49.0836ZM40.8755 47.8473C40.1753 47.3679 39.4083 46.9141 39.1713 46.8388C38.9343 46.7636 38.7404 46.6185 38.7404 46.5165C38.7404 46.0822 39.5463 46.4249 41.2978 47.6041C42.652 48.5158 43.2393 48.5182 45.8033 47.6224C47.8301 46.9144 48.2949 46.8125 48.2906 47.0772C48.2882 47.2315 46.3535 47.9453 44.6113 48.4348C42.9068 48.9136 42.2917 48.8169 40.8755 47.8473ZM32.77 47.3353C32.77 46.5427 34.221 44.031 34.5584 44.2396C34.6528 44.2979 34.4266 44.7964 34.0558 45.3474C33.685 45.8984 33.3236 46.6585 33.2527 47.0366C33.1151 47.7701 32.77 47.9837 32.77 47.3353ZM93.5496 46.1017C93.3411 45.8663 92.7724 45.4185 92.2858 45.1067L91.401 44.5397H87.6587C85.2965 44.5397 83.9164 44.4664 83.9164 44.3407C83.9164 44.0134 91.1542 44.0822 91.9331 44.417C92.6483 44.7244 94.2651 46.062 94.2651 46.3464C94.2651 46.6587 93.9463 46.5497 93.5496 46.1017ZM93.6503 41.0739C94.7698 40.0014 94.9271 38.4156 94.0274 37.2718C93.1232 36.1223 94.804 36.1812 62.9071 36.1812C36.2116 36.1812 33.4644 36.2107 32.8459 36.5042C31.6046 37.0933 30.9489 38.5663 31.3658 39.8294C31.585 40.4936 32.406 41.4078 32.9689 41.6145C33.1331 41.6748 46.7174 41.7084 63.1562 41.6891L93.0448 41.6541L93.6503 41.0739ZM86.205 40.9575C86.2782 40.8389 87.5522 40.7585 89.3567 40.7585C92.7385 40.7585 93.0861 40.6502 93.5922 39.4389C93.9553 38.5699 94.2978 38.5524 94.0559 39.4151C93.9561 39.7709 93.6028 40.3082 93.2706 40.6092L92.6667 41.1565H89.3743C87.2301 41.1565 86.1249 41.0871 86.205 40.9575ZM43.5166 36.9772C43.5166 36.8467 47.8618 36.7782 56.154 36.7782C64.4462 36.7782 68.7913 36.8466 68.7913 36.9772C68.7913 37.1078 64.4462 37.1763 56.154 37.1763C47.8618 37.1763 43.5166 37.1078 43.5166 36.9772ZM88.8456 33.883C90.4686 33.2049 91.2685 31.8693 91.2754 29.8258C91.2813 28.0026 90.7767 27.0914 88.5074 24.8317C86.3715 22.7047 84.3634 21.2925 81.4287 19.8534C73.9182 16.1708 63.0213 15.0674 53.2007 16.9953C46.1194 18.3854 40.0054 21.6367 36.3028 25.9813C34.8433 27.6938 34.6684 28.1039 34.6684 29.8128C34.6684 31.4407 34.9509 32.193 35.9062 33.1095C37.0784 34.2341 35.5889 34.1748 62.8771 34.1833C85.2122 34.1902 88.193 34.1557 88.8456 33.883ZM77.946 32.997C77.946 32.8695 79.7659 32.798 83.0078 32.798C85.7919 32.798 88.2907 32.714 88.5607 32.6113C88.8307 32.5087 89.3066 32.09 89.6184 31.681C90.0765 31.08 90.1827 30.7435 90.1716 29.9273C90.1633 29.3717 90.0076 28.6312 89.824 28.2817C89.6107 27.8757 89.5632 27.601 89.6926 27.5211C89.9697 27.3498 90.5247 28.7202 90.6208 29.8128C90.7166 30.9041 90.1193 32.0607 89.108 32.7423C88.4495 33.186 88.3196 33.196 83.1904 33.196C79.8268 33.196 77.946 33.1246 77.946 32.997ZM36.9972 32.6C34.8953 31.3185 35.1284 28.5521 37.5478 26.0684C38.8031 24.7796 40.6451 23.3827 40.9535 23.4855C41.0836 23.5289 40.7507 23.8869 40.2139 24.2811C38.7198 25.3782 36.7841 27.4965 36.323 28.5387C35.6027 30.1671 36.0117 31.6098 37.3966 32.3259C37.6978 32.4817 37.9443 32.6964 37.9443 32.8031C37.9443 33.0892 37.7209 33.0413 36.9972 32.6ZM63.1526 22.7146C62.9054 22.4674 63.0182 21.6965 63.3185 21.5813C63.9904 21.3234 64.6292 22.0485 64.1931 22.574C63.9545 22.8616 63.3776 22.9395 63.1526 22.7146ZM68.8237 22.0754C68.415 21.8164 68.6195 20.967 69.1073 20.8973C69.7049 20.8119 70.0727 21.3172 69.7932 21.8395C69.5594 22.2764 69.2569 22.35 68.8237 22.0754ZM57.1629 21.5391C56.9911 21.3673 56.8505 21.15 56.8505 21.0562C56.8505 20.9624 56.9911 20.745 57.1629 20.5733C57.5564 20.1798 58.2437 20.4869 58.2437 21.0562C58.2437 21.6254 57.5564 21.9326 57.1629 21.5391ZM74.8503 21.0216C74.7096 20.5782 75.2268 19.984 75.6351 20.12C75.9694 20.2315 76.2232 20.7901 76.0933 21.1286C75.9046 21.6203 75.016 21.5438 74.8503 21.0216ZM48.7233 20.6824C48.5769 20.5896 48.4874 20.2999 48.5243 20.0386C48.6051 19.4678 49.4225 19.3723 49.7523 19.8952C50.1315 20.4963 49.3605 21.0862 48.7233 20.6824ZM71.1736 18.9595C70.812 18.5238 71.1611 17.9715 71.7982 17.9715C72.1943 17.9715 72.2741 18.0716 72.2741 18.5685C72.2741 19.0223 72.1743 19.1798 71.8587 19.2249C71.6302 19.2575 71.3219 19.1381 71.1736 18.9595ZM54.1698 18.7964C53.6194 18.394 53.859 17.7725 54.5647 17.7725C55.024 17.7725 55.173 17.8711 55.2208 18.2068C55.3034 18.7868 54.6545 19.1508 54.1698 18.7964ZM59.8681 18.8912C59.4493 18.6257 59.6653 17.7826 60.1706 17.7106C60.7791 17.624 61.1459 18.3245 60.7167 18.7537C60.3615 19.1089 60.2421 19.1283 59.8681 18.8912ZM65.9116 18.7964C65.3612 18.394 65.6009 17.7725 66.3065 17.7725C66.7658 17.7725 66.9148 17.8711 66.9626 18.2068C67.0451 18.7868 66.3963 19.1508 65.9116 18.7964Z" fill="white"/>
<path d="M15.8744 67.1119V67.4007H16.2499C17.261 67.4007 18.0987 68.2095 18.0987 69.2205V85.2524C18.0698 86.2634 17.261 87.0434 16.2499 87.0434H15.9033L15.8744 87.3322H24.6558V87.0434H24.3092C23.2982 87.0434 22.4605 86.2345 22.4605 85.2524V68.3828C22.8071 68.4117 23.8759 68.354 24.6269 68.4117C26.5334 68.4406 27.92 69.6827 28.0355 72.4558C28.0644 73.0335 28.0066 73.4957 27.9489 73.8423C27.4289 76.3843 25.8402 77.1643 24.2803 77.1931H23.4137V77.4531C24.1648 77.5976 24.8003 78.2042 25.378 79.4174C25.7535 80.2551 27.0823 83.1148 27.7755 84.3569C29.1043 86.6678 31.3863 87.3322 34.5638 87.3322H37.3658V87.0434C35.8637 87.0434 35.026 86.4656 33.7839 84.8769C32.7151 83.5192 30.9819 80.775 30.8953 80.6306C30.2309 79.6196 29.1621 78.4641 27.9489 78.0597C31.213 77.742 32.6573 74.9978 32.6573 72.5714C32.6573 68.5562 29.3065 67.1119 25.8113 67.1119H15.8744ZM46.5733 69.6538C40.4494 69.6538 36.3475 73.0913 36.3475 78.6952C36.3475 84.2703 40.4494 87.7077 46.5733 87.7077C52.6971 87.7077 56.799 84.2703 56.799 78.6952C56.799 73.0913 52.6971 69.6538 46.5733 69.6538ZM46.5733 86.5812C43.078 86.5812 40.796 83.5481 40.796 78.6952C40.796 73.8135 43.078 70.7804 46.5733 70.7804C50.0974 70.7804 52.3505 73.8135 52.3505 78.6952C52.3505 83.5481 50.0974 86.5812 46.5733 86.5812ZM75.5852 87.0434C74.5742 87.0434 73.6209 86.4656 73.101 85.7435L68.1037 78.002L72.4944 71.5603C73.0432 70.8382 73.9676 70.2605 74.9786 70.2605H75.3252V69.9716H68.9991V70.2605H69.3169C70.0101 70.2605 70.6456 71.0693 70.1835 71.7625L67.1215 76.471L64.0596 71.7625C63.6263 71.0693 64.2618 70.2605 64.9551 70.2605H65.2728V69.9716H56.3758V70.2605H56.7225C57.7046 70.2605 58.6579 70.8671 59.1778 71.5603L64.0018 79.0419L58.8601 85.8012C58.2534 86.4945 57.3869 87.0434 56.4047 87.0434H56.0581V87.3322H62.3842V87.0434H62.0664C61.3732 87.0434 60.7088 86.2634 61.1998 85.5702L64.9262 80.4862L68.1903 85.5702C68.6236 86.2634 67.9881 87.0434 67.2948 87.0434H66.9771V87.3322H75.9318V87.0434H75.5852ZM88.5086 70.0005V70.2893H88.8264C89.5485 70.2893 90.0685 71.0404 89.7507 71.7337L85.8511 78.3486L82.0092 71.7337C81.7203 71.0404 82.2114 70.2893 82.9336 70.2893H83.2513V70.0005H74.4988V70.2893H74.8454C75.8853 70.2893 76.8386 70.9248 77.3585 71.7337L82.4714 79.6196V85.5124C82.4714 86.4079 81.7492 87.0722 80.8538 87.0722H80.536V87.3611H88.5953V87.0722H88.2775C87.382 87.0722 86.6888 86.4079 86.6599 85.5124V79.6485L91.7728 71.7337C92.3216 70.9537 93.2748 70.2893 94.3436 70.2893H94.6903V70.0005H88.5086ZM95.9046 72.8891C98.6777 71.8781 99.371 68.2095 99.3132 66.7074L96.1935 67.1119C96.4534 69.2205 96.3379 70.2316 95.5002 72.7447L95.9046 72.8891ZM106.355 75.3444C105.257 74.68 104.391 74.1312 104.478 73.0335C104.564 71.7337 105.777 70.8093 107.626 70.8093C109.937 70.8093 111.237 71.9359 111.237 73.6979H111.468L111.872 69.9138H110.313C109.128 69.7694 107.511 69.6538 106.557 69.6538C103.611 69.6538 101.589 71.2715 101.358 74.0157C101.127 76.0088 102.051 77.5687 103.9 78.753L108.031 81.3528C109.504 82.2771 110.168 82.9415 110.168 83.9525C110.168 85.368 109.07 86.5523 106.817 86.5812C103.755 86.5812 101.878 84.3858 102.051 81.7861H101.82C101.127 82.8837 100.751 85.0791 101.184 86.1768C102.022 87.0722 104.015 87.7366 106.5 87.7366C110.515 87.7366 113.114 85.7435 113.288 82.4793C113.432 80.4284 112.392 79.0419 110.919 78.1464L106.355 75.3444Z" fill="white"/>
<path d="M18.1881 94.8812V94.9653H18.289C18.5834 94.9653 18.8189 95.2007 18.8273 95.4867V100.163C18.8189 100.457 18.5834 100.684 18.289 100.684H18.1881L18.1797 100.768H20.8457C22.267 100.768 23.2173 100.213 23.2089 99.1283C23.2173 98.2368 22.5698 97.6481 21.7203 97.5724C22.2502 97.5051 22.7548 97.093 22.7548 96.3277C22.7548 95.2933 21.8381 94.8812 20.6186 94.8812H18.1881ZM20.0888 100.39V95.2512H20.3327C20.9803 95.2428 21.4092 95.5876 21.4092 96.4286C21.4092 97.278 20.9046 97.5808 20.3747 97.5808V97.6649C21.1232 97.6565 21.7708 98.0434 21.7624 99.0274C21.7708 99.9777 21.2326 100.39 20.4841 100.39H20.0888ZM28.3797 94.8812V94.9653H28.5143C28.7582 94.9653 28.9516 95.1419 28.96 95.3774V98.6909C28.96 99.8179 28.3208 100.524 27.2948 100.524C26.2856 100.524 25.6548 99.7759 25.6548 98.5816V95.3774C25.6717 95.1419 25.8651 94.9653 26.1006 94.9653H26.2351V94.8812H23.813V94.9653H23.956C24.1999 94.9653 24.3933 95.1419 24.4017 95.3858V98.6573C24.4017 100.028 25.3353 100.894 27.135 100.894C28.6488 100.894 29.5571 100.02 29.5571 98.6405V95.369C29.574 95.1335 29.7674 94.9653 30.0029 94.9653H30.1374V94.8812H28.3797ZM30.664 94.8812V94.9653H30.7734C31.0677 94.9653 31.3116 95.2007 31.3116 95.4951V100.163C31.3032 100.457 31.0677 100.684 30.7734 100.684H30.6725L30.664 100.768H33.2207V100.684H33.1198C32.8254 100.684 32.5816 100.449 32.5816 100.163V95.2512C32.6825 95.2596 32.9937 95.2428 33.2123 95.2596C33.7674 95.268 34.1711 95.6297 34.2047 96.437C34.2131 96.6052 34.1963 96.7398 34.1795 96.8407C34.0281 97.5808 33.5655 97.8079 33.1114 97.8163H32.8591V97.892C33.0778 97.934 33.2628 98.1107 33.431 98.4639C33.5403 98.7078 33.9272 99.5404 34.129 99.902C34.5159 100.575 35.1803 100.768 36.1054 100.768H36.9212V100.684C36.4839 100.684 36.24 100.516 35.8783 100.053C35.5671 99.6581 35.0625 98.8592 35.0373 98.8171C34.8439 98.5227 34.5327 98.1863 34.1795 98.0686C35.1298 97.9761 35.5503 97.1771 35.5503 96.4707C35.5503 95.3017 34.5748 94.8812 33.5571 94.8812H30.664ZM43.2102 98.035V97.9509H40.847V98.035H40.9816C41.2507 98.035 41.4105 98.1695 41.4105 98.4218V99.7086C41.217 100.238 40.6031 100.533 39.9892 100.533C38.7445 100.533 38.0632 99.4983 38.0632 97.8668C38.0632 96.1595 38.8033 95.1251 40.1826 95.1251C41.0741 95.1251 41.873 95.5203 42.1926 96.6641H42.2599L42.2431 95.226C41.7469 94.9737 40.847 94.7718 39.9219 94.7718C37.9371 94.7718 36.6924 95.9408 36.6924 97.8163C36.6924 99.7086 37.9623 100.894 39.8798 100.894C41.2254 100.894 42.2683 100.314 42.6636 99.8095V98.4134C42.6552 98.1695 42.8066 98.035 43.0841 98.035H43.2102ZM48.2273 99.0526H48.1432C47.8825 99.8936 47.3358 100.415 46.4948 100.415H45.3931V98.0434H46.52C46.9237 98.0602 47.2265 98.363 47.2265 98.7666V98.8423H47.3022V96.8996H47.2265V96.9669C47.2265 97.379 46.9237 97.6817 46.5116 97.6901H45.3931V95.2428H46.806C47.3106 95.268 47.6302 95.596 47.6302 96.1006V96.2016H47.7143V94.7298C47.5629 94.7971 47.0751 94.8812 46.7134 94.8812H43.484L43.4924 94.9653H43.5933C43.8792 94.9653 44.1147 95.1923 44.1315 95.4699V100.163C44.1315 100.449 43.8876 100.693 43.5933 100.693H43.4924L43.484 100.777H47.8404L48.2273 99.0526ZM48.7819 94.8812V94.9653H48.8913C49.1856 94.9653 49.4295 95.2007 49.4295 95.4951V100.163C49.4211 100.457 49.1856 100.684 48.8913 100.684H48.7904L48.7819 100.768H51.3386V100.684H51.2377C50.9433 100.684 50.6995 100.449 50.6995 100.163V95.2512C50.8004 95.2596 51.1115 95.2428 51.3302 95.2596C51.8853 95.268 52.289 95.6297 52.3226 96.437C52.331 96.6052 52.3142 96.7398 52.2974 96.8407C52.146 97.5808 51.6834 97.8079 51.2293 97.8163H50.977V97.892C51.1956 97.934 51.3807 98.1107 51.5489 98.4639C51.6582 98.7078 52.0451 99.5404 52.2469 99.902C52.6338 100.575 53.2982 100.768 54.2233 100.768H55.0391V100.684C54.6017 100.684 54.3579 100.516 53.9962 100.053C53.685 99.6581 53.1804 98.8592 53.1552 98.8171C52.9618 98.5227 52.6506 98.1863 52.2974 98.0686C53.2477 97.9761 53.6682 97.1771 53.6682 96.4707C53.6682 95.3017 52.6926 94.8812 51.675 94.8812H48.7819ZM59.7746 94.713H59.6989C59.682 94.9653 59.3456 95.6885 59.2868 95.8147L57.344 100.213C57.159 100.55 56.8731 100.684 56.6292 100.684H56.5535V100.768H58.3617V100.693H58.286C58.0673 100.693 57.8234 100.499 57.9664 100.163L58.3953 99.1199H60.3717L60.7838 100.163C60.9099 100.499 60.6744 100.693 60.4558 100.693H60.3801V100.768H63.0629V100.684H62.9956C62.7433 100.684 62.4574 100.541 62.2724 100.196L59.7746 94.713ZM58.5467 98.7666L59.4045 96.7062L60.2287 98.7666H58.5467ZM67.2917 94.8812V94.9653H67.4515C67.729 94.9653 67.9645 95.2007 67.9645 95.4783V98.8003L63.7258 94.7634H63.6417C63.6417 94.7634 63.7426 95.1839 63.7426 95.8063V100.18C63.7342 100.457 63.5071 100.693 63.2212 100.693H63.0614V100.777H65.6097V100.693H65.4583C65.1723 100.693 64.9453 100.465 64.9369 100.18V96.8407L69.184 100.894H69.2597C69.2597 100.894 69.1672 100.449 69.1672 99.8179V95.4699C69.1756 95.1923 69.4026 94.9653 69.6886 94.9653H69.84V94.8812H67.2917ZM70.3161 94.8896V94.9653H70.417C70.7029 94.9653 70.9552 95.1755 70.9552 95.4531V100.163C70.9468 100.457 70.7113 100.693 70.417 100.693H70.3076V100.777H73.3605C75.3453 100.777 76.59 99.6497 76.59 97.8331C76.59 96.0165 75.3453 94.8896 73.3605 94.8896H70.3161ZM72.2167 95.2428H73.2596C74.4622 95.2428 75.2107 96.2352 75.2107 97.8331C75.2107 99.4226 74.4622 100.415 73.2596 100.415H72.2167V95.2428ZM85.6656 94.7718H85.5815L83.0837 99.061L80.4765 94.7634H80.3924L79.7028 100.163C79.6523 100.491 79.3832 100.684 79.0805 100.684H78.9543V100.768H80.712V100.693H80.5775C80.4008 100.693 80.2326 100.516 80.2495 100.331L80.5859 97.3033L82.7473 100.936H82.823C82.8398 100.533 83.151 100.011 83.151 100.011L84.7236 97.2865L85.06 100.331C85.0769 100.516 84.9087 100.693 84.7321 100.693H84.5975V100.768H87.1289V100.684H86.9944C86.6916 100.684 86.4309 100.491 86.3804 100.163L85.6656 94.7718ZM90.6892 94.7634C88.6708 94.7634 87.3757 95.9408 87.3757 97.8331C87.3757 99.717 88.6708 100.886 90.6892 100.886C92.7077 100.886 93.9944 99.717 93.9944 97.8331C93.9944 95.9408 92.7077 94.7634 90.6892 94.7634ZM90.6892 100.533C89.5034 100.533 88.7549 99.4983 88.7549 97.8331C88.7549 96.1595 89.5034 95.1251 90.6892 95.1251C91.8751 95.1251 92.6152 96.1595 92.6152 97.8331C92.6152 99.4983 91.8751 100.533 90.6892 100.533ZM94.5612 94.8812V94.9653H94.6706C94.9649 94.9653 95.2088 95.2007 95.2088 95.4951V100.163C95.2004 100.457 94.9649 100.684 94.6706 100.684H94.5697L94.5612 100.768H97.1179V100.684H97.017C96.7226 100.684 96.4788 100.449 96.4788 100.163V95.2512C96.5797 95.2596 96.8908 95.2428 97.1095 95.2596C97.6646 95.268 98.0683 95.6297 98.1019 96.437C98.1103 96.6052 98.0935 96.7398 98.0767 96.8407C97.9253 97.5808 97.4627 97.8079 97.0086 97.8163H96.7563V97.892C96.975 97.934 97.16 98.1107 97.3282 98.4639C97.4375 98.7078 97.8244 99.5404 98.0262 99.902C98.4131 100.575 99.0775 100.768 100.003 100.768H100.818V100.684C100.381 100.684 100.137 100.516 99.7755 100.053C99.4643 99.6581 98.9597 98.8592 98.9345 98.8171C98.7411 98.5227 98.4299 98.1863 98.0767 98.0686C99.027 97.9761 99.4475 97.1771 99.4475 96.4707C99.4475 95.3017 98.472 94.8812 97.4543 94.8812H94.5612ZM105.464 99.0526H105.38C105.119 99.8936 104.572 100.415 103.731 100.415H102.63V98.0434H103.756C104.16 98.0602 104.463 98.363 104.463 98.7666V98.8423H104.539V96.8996H104.463V96.9669C104.463 97.379 104.16 97.6817 103.748 97.6901H102.63V95.2428H104.042C104.547 95.268 104.867 95.596 104.867 96.1006V96.2016H104.951V94.7298C104.799 94.7971 104.312 94.8812 103.95 94.8812H100.72L100.729 94.9653H100.83C101.116 94.9653 101.351 95.1923 101.368 95.4699V100.163C101.368 100.449 101.124 100.693 100.83 100.693H100.729L100.72 100.777H105.077L105.464 99.0526Z" fill="white"/>
</svg>
